<?xml version="1.0" encoding="iso-8859-1"?>
<!-- Uploaded to: SVG Repo, www.svgrepo.com, Generator: SVG Repo Mixer Tools -->
<svg fill="#000000" height="800px" width="800px" version="1.1" id="Layer_1" xmlns="http://www.w3.org/2000/svg" xmlns:xlink="http://www.w3.org/1999/xlink" 
	 viewBox="0 0 491.5 491.5" xml:space="preserve">
<g>
	<g>
		<path d="M449.149,216.2v-99c0-64.7-53.4-117.2-119.1-117.2h-168.4c-65.6,0-119.1,52.6-119.1,117.2v99
			c-25,12.1-42.5,37.5-42.5,67.1v208.2h163.8V471h163.8v20.5h163.8V283.3C491.649,253.7,474.149,228.2,449.149,216.2z
			 M122.949,307.2v41v102.4h-81.9V283.3c0-16,11.2-29.4,26.2-32.8h0.2c2.6-0.6,5-0.9,7.3-0.9h14.4c18.6,0,33.8,15.1,33.8,33.8V307.2
			z M327.749,348.1h-163.8v-41h163.8V348.1z M368.749,450.5V348.1v-41v-23.9c0-18.6,15.1-33.8,33.8-33.8h14.3c2.3,0,4.7,0.3,7.3,0.9
			h0.2c15,3.4,26.2,16.8,26.2,32.8v167.4H368.749z"/>
	</g>
</g>
</svg>